<svg width="32" height="32" viewBox="0 0 32 32" fill="none" xmlns="http://www.w3.org/2000/svg">
<g clip-path="url(#clip0_481_1138)">
<path d="M29.1363 10.2164L19.0919 2.18082C17.129 0.616654 14.062 0.601319 12.1145 2.16549L2.07005 10.2164C0.628558 11.3665 -0.245536 13.6667 0.0611633 15.4763L1.99337 27.0388C2.43809 29.6304 4.84568 31.67 7.46796 31.67H23.723C26.3147 31.67 28.7683 29.5844 29.213 27.0235L31.1452 15.4609C31.4212 13.6667 30.5471 11.3665 29.1363 10.2164ZM16.7456 25.536C16.7456 26.1647 16.2242 26.6861 15.5955 26.6861C14.9668 26.6861 14.4454 26.1647 14.4454 25.536V20.9355C14.4454 20.3068 14.9668 19.7854 15.5955 19.7854C16.2242 19.7854 16.7456 20.3068 16.7456 20.9355V25.536Z" fill="#042F6E"/>
</g>
<defs>
<clipPath id="clip0_481_1138">
<rect width="32" height="32" fill="white"/>
</clipPath>
</defs>
</svg>
