<svg width="46" height="48" viewBox="0 0 46 48" fill="none" xmlns="http://www.w3.org/2000/svg">
<rect y="0.5" width="45.7663" height="46.5166" rx="11.254" fill="#F4F7FE"/>
<path fill-rule="evenodd" clip-rule="evenodd" d="M26.8498 14.5007C27.4808 14.5007 28.1108 14.5897 28.7098 14.7907C32.4008 15.9907 33.7308 20.0407 32.6198 23.5807C31.9898 25.3897 30.9598 27.0407 29.6108 28.3897C27.6798 30.2597 25.5608 31.9197 23.2798 33.3497L23.0298 33.5007L22.7698 33.3397C20.4808 31.9197 18.3498 30.2597 16.4008 28.3797C15.0608 27.0307 14.0298 25.3897 13.3898 23.5807C12.2598 20.0407 13.5898 15.9907 17.3208 14.7697C17.6108 14.6697 17.9098 14.5997 18.2098 14.5607H18.3298C18.6108 14.5197 18.8898 14.5007 19.1698 14.5007H19.2798C19.9098 14.5197 20.5198 14.6297 21.1108 14.8307H21.1698C21.2098 14.8497 21.2398 14.8707 21.2598 14.8897C21.4808 14.9607 21.6898 15.0407 21.8898 15.1507L22.2698 15.3207C22.3616 15.3697 22.4647 15.4445 22.5537 15.5092C22.6102 15.5502 22.661 15.587 22.6998 15.6107C22.7161 15.6203 22.7327 15.63 22.7494 15.6398C22.8351 15.6898 22.9245 15.742 22.9998 15.7997C24.1108 14.9507 25.4598 14.4907 26.8498 14.5007ZM29.5098 21.7007C29.9198 21.6897 30.2698 21.3607 30.2998 20.9397V20.8207C30.3298 19.4197 29.4808 18.1507 28.1898 17.6607C27.7798 17.5197 27.3298 17.7407 27.1798 18.1607C27.0398 18.5807 27.2598 19.0407 27.6798 19.1897C28.3208 19.4297 28.7498 20.0607 28.7498 20.7597V20.7907C28.7308 21.0197 28.7998 21.2407 28.9398 21.4107C29.0798 21.5807 29.2898 21.6797 29.5098 21.7007Z" fill="#002254"/>
</svg>
