<svg width="31" height="30" viewBox="0 0 31 30" fill="none" xmlns="http://www.w3.org/2000/svg">
<path d="M20.548 0.0708008L18.8035 3.90883L14.9655 5.65338L18.8035 7.39794L20.548 11.236L22.2926 7.39794L26.1306 5.65338L22.2926 3.90883M27.5263 7.74685L26.647 9.65889L24.735 10.5381L26.647 11.4104L27.5263 13.3294L28.3985 11.4104L30.3176 10.5381L28.3985 9.65889" fill="#7F95B6"/>
<path d="M8.87109 23.8303V13.8503L15.5244 18.8403M11.0889 7.75146C9.63266 7.75146 8.1907 8.03829 6.84534 8.59555C5.49998 9.15282 4.27755 9.96962 3.24785 10.9993C1.16829 13.0789 0 15.8994 0 18.8403C0 21.7813 1.16829 24.6018 3.24785 26.6813C4.27755 27.711 5.49998 28.5278 6.84534 29.0851C8.1907 29.6424 9.63266 29.9292 11.0889 29.9292C14.0298 29.9292 16.8503 28.7609 18.9299 26.6813C21.0094 24.6018 22.1777 21.7813 22.1777 18.8403C22.1777 17.3841 21.8909 15.9422 21.3336 14.5968C20.7764 13.2514 19.9596 12.029 18.9299 10.9993C17.9002 9.96962 16.6778 9.15282 15.3324 8.59555C13.987 8.03829 12.5451 7.75146 11.0889 7.75146Z" fill="#7F95B6"/>
</svg>
