<svg width="46" height="47" viewBox="0 0 46 47" fill="none" xmlns="http://www.w3.org/2000/svg">
<rect width="45.7663" height="46.5166" rx="11.254" fill="#F4F7FE"/>
<path fill-rule="evenodd" clip-rule="evenodd" d="M23.0142 26.6812H22.752C20.9494 26.6812 19.4884 25.0773 19.4884 23.1003V19.2476C19.4884 17.2698 20.9494 15.6667 22.752 15.6667H23.0142C24.8168 15.6667 26.2786 17.2698 26.2786 19.2476V23.1003C26.2786 25.0773 24.8168 26.6812 23.0142 26.6812ZM27.8051 22.9857C27.8051 22.5449 28.1306 22.1886 28.5316 22.1886C28.9327 22.1886 29.2582 22.5449 29.2582 22.9857C29.2582 26.5722 26.7836 29.5337 23.6101 29.9315V31.5362C23.6101 31.9762 23.2846 32.3334 22.8835 32.3334C22.4818 32.3334 22.157 31.9762 22.157 31.5362V29.9315C18.9828 29.5337 16.5082 26.5722 16.5082 22.9857C16.5082 22.5449 16.8337 22.1886 17.2347 22.1886C17.6358 22.1886 17.9613 22.5449 17.9613 22.9857C17.9613 25.9632 20.1692 28.3858 22.8835 28.3858C25.5972 28.3858 27.8051 25.9632 27.8051 22.9857Z" fill="#002254"/>
</svg>
