<svg width="26" height="25" viewBox="0 0 26 25" fill="none" xmlns="http://www.w3.org/2000/svg">
<path d="M11.0387 18.736H3.50317" stroke="#486287" stroke-width="1.5" stroke-linecap="round" stroke-linejoin="round"/>
<path fill-rule="evenodd" clip-rule="evenodd" d="M22.4978 18.736C22.4978 20.3929 21.1547 21.736 19.4978 21.736C17.8409 21.736 16.4978 20.3929 16.4978 18.736C16.4978 17.0779 17.8409 15.736 19.4978 15.736C21.1547 15.736 22.4978 17.0779 22.4978 18.736Z" stroke="#486287" stroke-width="1.5" stroke-linecap="round" stroke-linejoin="round"/>
<path d="M14.9612 6.52302H22.4979" stroke="#486287" stroke-width="1.5" stroke-linecap="round" stroke-linejoin="round"/>
<path fill-rule="evenodd" clip-rule="evenodd" d="M3.50269 6.52301C3.50269 8.1811 4.84582 9.52301 6.50269 9.52301C8.15955 9.52301 9.50269 8.1811 9.50269 6.52301C9.50269 4.86615 8.15955 3.52301 6.50269 3.52301C4.84582 3.52301 3.50269 4.86615 3.50269 6.52301Z" stroke="#486287" stroke-width="1.5" stroke-linecap="round" stroke-linejoin="round"/>
</svg>
