<svg width="33" height="32" viewBox="0 0 33 32" fill="none" xmlns="http://www.w3.org/2000/svg">
<path d="M12.3175 2.66669C8.82412 2.66669 5.98412 5.50669 5.98412 9.00002C5.98412 12.4267 8.66412 15.2 12.1575 15.32C12.2641 15.3067 12.3708 15.3067 12.4508 15.32H12.5441C14.1833 15.2653 15.7369 14.5753 16.8765 13.3959C18.0161 12.2165 18.6524 10.6401 18.6508 9.00002C18.6508 5.50669 15.8108 2.66669 12.3175 2.66669ZM19.0908 18.8654C15.3708 16.3854 9.30412 16.3854 5.55745 18.8654C3.86412 19.9987 2.93079 21.532 2.93079 23.172C2.93079 24.812 3.86412 26.332 5.54412 27.452C7.41079 28.7054 9.86412 29.332 12.3175 29.332C14.7708 29.332 17.2241 28.7054 19.0908 27.452C20.7708 26.3187 21.7041 24.7987 21.7041 23.1454C21.6908 21.5054 20.7708 19.9854 19.0908 18.8654ZM26.9708 9.78402C27.1841 12.3707 25.3441 14.6374 22.7975 14.944H22.7308C22.6508 14.944 22.5708 14.944 22.5041 14.9707C21.2108 15.0374 20.0241 14.624 19.1308 13.864C20.5041 12.6374 21.2908 10.7974 21.1308 8.79735C21.0393 7.75736 20.6861 6.75743 20.1041 5.89069C20.8028 5.5508 21.5736 5.38598 22.3502 5.41045C23.1267 5.43492 23.8857 5.64795 24.5616 6.03116C25.2374 6.41437 25.8099 6.95625 26.2296 7.61006C26.6494 8.26387 26.9037 9.00998 26.9708 9.78402Z" fill="#042F6E" fill-opacity="0.5"/>
<path d="M29.6348 22.12C29.5281 23.4133 28.7015 24.5333 27.3148 25.2933C25.9815 26.0267 24.3015 26.3733 22.6348 26.3333C23.5948 25.4667 24.1548 24.3867 24.2615 23.24C24.3948 21.5867 23.6081 20 22.0348 18.7333C21.1415 18.0267 20.1015 17.4667 18.9681 17.0533C21.9148 16.2 25.6215 16.7733 27.9015 18.6133C29.1281 19.6 29.7548 20.84 29.6348 22.12Z" fill="#042F6E" fill-opacity="0.5"/>
</svg>
